<?xml version="1.0" encoding="UTF-8" standalone="no"?>
<!-- Generator: Adobe Illustrator 22.0.1, SVG Export Plug-In . SVG Version: 6.00 Build 0)  -->

<svg
   version="1.1"
   id="Layer_1"
   x="0px"
   y="0px"
   viewBox="0 0 100 100"
   style="enable-background:new 0 0 100 100;"
   xml:space="preserve"
   sodipodi:docname="logo.svg"
   inkscape:version="1.1 (c68e22c387, 2021-05-23)"
   xmlns:inkscape="http://www.inkscape.org/namespaces/inkscape"
   xmlns:sodipodi="http://sodipodi.sourceforge.net/DTD/sodipodi-0.dtd"
   xmlns="http://www.w3.org/2000/svg"
   xmlns:svg="http://www.w3.org/2000/svg"><defs
   id="defs9" /><sodipodi:namedview
   id="namedview7"
   pagecolor="#505050"
   bordercolor="#eeeeee"
   borderopacity="1"
   inkscape:pageshadow="0"
   inkscape:pageopacity="0"
   inkscape:pagecheckerboard="0"
   showgrid="false"
   inkscape:zoom="4.16"
   inkscape:cx="24.278846"
   inkscape:cy="30.649038"
   inkscape:window-width="1920"
   inkscape:window-height="1017"
   inkscape:window-x="-8"
   inkscape:window-y="-8"
   inkscape:window-maximized="1"
   inkscape:current-layer="Layer_1" />
<g
   id="g4"
   transform="matrix(1.279366,0,0,1.0802194,-13.968295,3.2380717)"
   style="fill:#e76f51;fill-opacity:1;stroke:none">
	<path
   d="m 33.1,75.9 c 16.211143,0 18.323762,0.06969 27.41682,0.09271 1.114231,0.0028 2.423418,2.816368 3.395432,2.781987 C 64.750265,78.745056 65.943864,76 66.9,76 78,76 87,67 87,55.9 V 30.1 C 87,19 78,10 66.9,10 H 33.1 C 22,10 13,19 13,30.1 v 25.8 c 0,11 9,20 20.1,20 z"
   id="path2"
   sodipodi:nodetypes="csscssssssc"
   style="fill:#e76f51;fill-opacity:1;stroke:none" />
</g>
<path
   d="M 38.045564,46.856271 C 48.299786,38.478626 58.330362,29.810563 68.807849,21.678703 63.312064,30.123509 57.660182,38.456122 52.164397,46.90055 47.450614,46.92306 42.737209,46.92306 38.045564,46.85591 Z m 8.668079,4.668752 c 4.735918,0 9.449702,0 14.163483,0.06717 -10.321014,8.332611 -20.306935,17.067482 -30.806939,25.17719 5.495784,-8.444799 11.147672,-16.799558 16.643456,-25.244358 z"
   fill="#010101"
   id="path6"
   style="fill:#f4a261;fill-opacity:1;stroke-width:0.37524" /><path
   class="st0"
   d="m 88.25903,55.59506 1.098042,1.445682 c 0.288295,0.381558 0.216221,0.928463 -0.165338,1.216748 l -1.165872,0.886063 c 0.211979,0.563862 0.347642,1.165872 0.402758,1.780608 l 1.326967,0.182305 c 0.474832,0.06363 0.805515,0.504506 0.741926,0.979327 l -0.245894,1.801809 c -0.06363,0.474831 -0.504505,0.809748 -0.979336,0.741916 l -1.449926,-0.199253 c -0.25861,0.563853 -0.589295,1.081084 -0.979326,1.54319 l 0.813988,1.068367 c 0.288285,0.381558 0.211979,0.928462 -0.169578,1.216747 l -1.445684,1.098041 c -0.381558,0.288285 -0.928462,0.211979 -1.216747,-0.165346 L 83.938938,68.02539 c -0.568095,0.211979 -1.165873,0.347642 -1.784842,0.402758 l -0.182305,1.326979 c -0.06363,0.474831 -0.504505,0.805514 -0.979327,0.741914 L 79.190655,70.251158 C 78.715824,70.187528 78.38514,69.746652 78.44874,69.271821 l 0.199252,-1.449925 c -0.55962,-0.258611 -1.081083,-0.589295 -1.543189,-0.975095 l -1.068367,0.809757 c -0.381558,0.288285 -0.928454,0.216212 -1.216747,-0.165347 l -1.098042,-1.445684 c -0.288284,-0.381557 -0.21621,-0.928462 0.165347,-1.216746 l 1.165874,-0.886063 c -0.211979,-0.568105 -0.347643,-1.165873 -0.402759,-1.78061 l -1.326977,-0.182305 c -0.474831,-0.06363 -0.809748,-0.504504 -0.741916,-0.979326 l 0.245894,-1.80181 c 0.06787,-0.474831 0.504505,-0.805515 0.979326,-0.741914 l 1.449926,0.199252 c 0.25861,-0.559621 0.589294,-1.081083 0.975095,-1.543189 L 75.42171,56.044449 c -0.288295,-0.377318 -0.216221,-0.924218 0.165336,-1.212506 l 1.445684,-1.098042 c 0.381557,-0.288289 0.928462,-0.216216 1.216747,0.165342 l 0.886062,1.165874 c 0.563864,-0.211977 1.165873,-0.347642 1.78061,-0.402757 l 0.182305,-1.326976 c 0.06363,-0.474829 0.504504,-0.809752 0.979326,-0.746159 l 1.80181,0.245893 c 0.474831,0.06359 0.809747,0.504506 0.741916,0.979335 l -0.199254,1.449923 c 0.563853,0.258611 1.081084,0.589293 1.547431,0.979335 l 1.068369,-0.809754 c 0.381557,-0.292528 0.928452,-0.220456 1.220978,0.161103 z M 64.882208,93.216747 h -4.03605 l -0.58081,1.899315 h -3.637525 l 4.337051,-11.527311 h 3.900376 l 4.320094,11.527311 h -3.730798 z m -0.754641,-2.497093 -1.259146,-4.146272 -1.263379,4.146272 z m 5.897198,-7.130903 h 5.926881 c 1.293063,0 2.259673,0.305242 2.899851,0.919979 0.640168,0.614737 0.962369,1.492316 0.962369,2.624272 0,1.165874 -0.351884,2.077378 -1.0514,2.734505 -0.699526,0.657136 -1.772126,0.983578 -3.209336,0.983578 H 73.5987 v 4.264977 h -3.573935 z m 3.573935,4.926346 h 0.877588 c 0.691043,0 1.17859,-0.118702 1.4584,-0.360358 0.27981,-0.237421 0.419716,-0.546905 0.419716,-0.915747 0,-0.360358 -0.122947,-0.669842 -0.3646,-0.919978 -0.241653,-0.250137 -0.699526,-0.377317 -1.369368,-0.377317 H 73.5987 Z m 7.656617,-4.926346 h 3.573925 V 95.116062 H 81.255317 Z M 70.342733,57.439258 c -0.775832,-0.05939 -1.560147,-0.0509 -2.335988,0.02545 -2.386863,0.228937 -4.705883,1.098042 -6.622156,2.586115 -2.217283,1.717021 -3.900387,4.286178 -4.549029,7.690534 l -0.203505,1.064125 -1.059884,0.186537 c -1.038684,0.182295 -1.967144,0.432432 -2.781137,0.7504 -0.788553,0.305242 -1.492318,0.682568 -2.107051,1.127716 -0.491787,0.356126 -0.915741,0.754641 -1.276102,1.187072 -1.115,1.335452 -1.632224,3.010073 -1.619504,4.705893 0.01271,1.721252 0.572337,3.459461 1.606785,4.888187 0.385799,0.529947 0.830951,1.017494 1.339695,1.441442 0.517224,0.428199 1.098041,0.784316 1.750932,1.05141 0.368839,0.152621 0.763116,0.27981 1.174352,0.381558 v 3.175419 c -0.847908,-0.152631 -1.627985,-0.381558 -2.357185,-0.682568 -0.962377,-0.398516 -1.814523,-0.911505 -2.564923,-1.538957 -0.712243,-0.593537 -1.335455,-1.26762 -1.865398,-2.001063 -1.411767,-1.950188 -2.174884,-4.332808 -2.191842,-6.706955 -0.01696,-2.399577 0.7292,-4.78644 2.340227,-6.71967 0.521463,-0.627452 1.136196,-1.20403 1.83996,-1.712778 0.818232,-0.593536 1.75517,-1.093799 2.815056,-1.505031 0.729201,-0.284053 1.509276,-0.521463 2.331747,-0.712241 0.932704,-3.705367 2.92104,-6.558577 5.477491,-8.538438 2.391094,-1.852681 5.269746,-2.933764 8.233186,-3.217813 1.555915,-0.148385 3.13302,-0.08055 4.676208,0.207736 -0.03393,0.139906 -0.06363,0.279811 -0.0805,0.423956 l -0.0039,0.02543 c -0.0297,0.241655 -0.04242,0.483308 -0.0297,0.729202 -0.326442,0.127183 -0.631694,0.301004 -0.907262,0.512983 l -0.01273,0.0088 c -0.411241,0.309484 -0.758883,0.707999 -1.017493,1.165874 z m 22.431411,8.139923 c 0.23742,0.216211 0.466347,0.440915 0.691041,0.682567 0.453633,0.487548 0.881831,1.038684 1.28459,1.65342 1.356651,2.085853 2.051935,4.871231 2.022262,7.597261 -0.0297,2.675146 -0.750401,5.337576 -2.225767,7.296249 -0.962369,1.276095 -2.196074,2.31902 -3.675683,3.145735 -1.013242,0.568095 -2.153684,1.038684 -3.395872,1.420243 v -3.285642 c 0.669852,-0.250135 1.293062,-0.529936 1.865399,-0.847904 1.114999,-0.623211 2.026504,-1.382095 2.709072,-2.293599 1.059884,-1.411758 1.581347,-3.408588 1.602547,-5.456282 0.02545,-2.149452 -0.500264,-4.307377 -1.522,-5.876008 -0.292526,-0.453632 -0.614736,-0.860621 -0.953893,-1.225231 -0.131432,-0.139905 -0.262854,-0.271326 -0.398517,-0.398515 0.0212,-0.211979 0.0297,-0.42819 0.01697,-0.644411 0.326442,-0.127179 0.631694,-0.301 0.907262,-0.512978 l 0.01273,-0.0088 c 0.436674,-0.334926 0.801274,-0.758874 1.059884,-1.246421 z m -10.75148,-7.571819 c 1.954431,0.267085 3.319567,2.068895 3.052473,4.023326 -0.267085,1.954419 -2.068894,3.323798 -4.023324,3.056704 -1.954431,-0.267095 -3.3238,-2.068894 -3.052463,-4.023326 0.271327,-1.95443 2.068894,-3.323798 4.023314,-3.056704 z"
   id="path4"
   sodipodi:nodetypes="cccccccccccccccccccccccccccccccccccccccccccccccccccccccccccccccsssssccccccscsssccccccccccccccccsccccccccccccccccccccccccccccccccccccccccccsssss"
   style="clip-rule:evenodd;fill-rule:evenodd;stroke-width:0.423955" /></svg>
